<svg version="1.1" id="selos" xmlns="http://www.w3.org/2000/svg" xmlns:xlink="http://www.w3.org/1999/xlink" x="0px" y="0px"
	 viewBox="0 0 95.8 101" style="enable-background:new 0 0 95.8 101;" xml:space="preserve">
<style type="text/css">
	.st0{fill:#4086C4;}
	.st1{opacity:0.25;fill:#FFFFFF;enable-background:new    ;}
	.st2{fill:#191919;}
</style>
<g id="selo-11">
	<path class="st0" d="M88.9,2.8H6.5c-2.1,0-3.8,1.7-3.8,3.8v87.5c0,2.1,1.7,3.8,3.8,3.8h82.4c2.1,0,3.8-1.7,3.8-3.8V6.6
		C92.7,4.5,91,2.8,88.9,2.8z"/>
	<path class="st1" d="M91.2,5.1C78.3,1.3,65.2,2.2,52,2.9c-13.8,0.5-27.6,0.2-41.3-1c-4.9-0.3-9.5,6.9-9,11.5
		c2.8,26.3,2.1,52.2,2.8,78.5c0.3,10.3,9.7,1.4,9.5-5.2c-0.6-22.2,0.9-50.2-0.7-72.4c10.4,0.7,25.2,0.8,35.6,0.4
		c13.3-0.7,25.5-3.1,38.5,0.7C93.5,17.1,98.7,7.3,91.2,5.1z"/>
	<path class="st2" d="M95.3,6.6c0,15.1-0.9,30.2-0.6,45.3c0.3,7.5,1.1,15.1,1,22.6c0,3.8-0.2,7.5-0.5,11.3l-0.3,5.7l-0.2,2.9
		C94.6,95.8,94,97.1,93,98s-2.3,1.5-3.6,1.5h-2.8c-1.9,0.1-3.8,0.1-5.7,0.2c-3.8,0.2-7.5,0.3-11.3,0.4c-7.5,0.2-15.1,0.6-22.6,0.7
		c-7.5,0.2-15.1-0.5-22.6-0.7l-11.3-0.3l-5.8-0.3c-0.4,0-1.2,0-1.8-0.2c-0.7-0.2-1.3-0.5-1.8-0.9c-1.1-0.8-1.9-2-2.1-3.4l0,0
		c0-0.1,0-0.2,0-0.3l0,0v0.4c-0.1-0.4-0.1-0.7-0.1-1.1v-0.7v-1.4V89c0-1.9-0.1-3.8-0.1-5.7L0.9,72c-0.2-7.6-0.7-15.2-0.8-22.8
		c0-3.8-0.1-7.6,0.1-11.4l0.5-11.4c0.2-3.8,0.1-7.6,0.1-11.4c0-1.9,0-3.8,0-5.7V7.9V7.2V6.8V6.6V6.3c0.1-1.5,0.7-3,1.8-4.1
		c1.1-1.1,2.7-1.7,4.2-1.7h2.9c1.9,0,3.8-0.1,5.7-0.1c3.8,0,7.6-0.1,11.4,0l11.4,0.1l11.4,0.2C57.2,0.8,64.8,1,72.4,1
		c3.8,0,7.6,0.1,11.4-0.1l2.9-0.1h1.4h0.7h0.4h0.2h0.3c1.5,0,3,0.7,4,1.8C94.7,3.6,95.3,5.1,95.3,6.6z M90.8,6.6
		c0-0.8-0.6-1.5-1.4-1.6l-5.6-0.2C80,4.7,76.2,4.7,72.4,4.7c-7.6,0-15.2,0.2-22.8,0.3L38.2,5.2L26.8,5.3c-3.8,0.1-7.6,0-11.4,0
		c-1.9,0-3.8-0.1-5.7-0.1H6.9c-0.4,0-0.7,0.1-1,0.4C5.6,5.8,5.4,6.2,5.3,6.5v2.7c0,1.9,0,3.8,0,5.7c0,3.8,0,7.6,0.1,11.4l0.5,11.5
		C6.1,41.6,6,45.4,6,49.2C5.9,56.8,5.4,64.4,5.2,72L4.8,83.4c-0.1,1.9-0.1,3.8-0.1,5.7V92v1.4v0.7c0,0.1,0,0.2,0,0.3v0.4l0,0v-0.3
		c0.1,0.5,0.4,1,0.9,1.3c0.3,0.2,0.5,0.3,0.7,0.3c0.3,0.1,0.4,0,1,0L13,96l11.3-0.3c7.5-0.1,15.1-0.8,22.6-0.7
		c7.5,0,15.1,0.4,22.6,0.7c3.8,0.1,7.5,0.2,11.3,0.4c1.9,0.1,3.8,0.1,5.7,0.2h2.8c0.6,0,1.1-0.2,1.5-0.6s0.6-0.9,0.6-1.5l-0.1-2.7
		l-0.4-5.7c-0.3-3.8-0.5-7.5-0.5-11.3c0-7.5,0.8-15.1,1-22.6C91.8,36.8,90.9,21.7,90.8,6.6z"/>
	<g>
		<g>
			<path class="st2" d="M77.9,91.8c-0.1,3.6-5,6.4-10.9,6.3c-5.2-0.1-9.5-2-10.5-4.9c-2,3-5.4,5-9.1,4.9c-3.8-0.1-7-2.1-8.9-5.2
				c-1.1,2.9-5.5,4.6-10.7,4.5c-6-0.1-10.8-3.1-10.7-6.7c0.1-3.6,5-6.4,11-6.3c3.6,0.1,6.8,1.5,8.8,3.2c0-0.4,0-0.8,0-1.2
				c0.1-6.3,2.6-20.1,11-20.1s10.7,14.3,10.6,20.5c0,0.4,0,0.8-0.1,1.2c2-1.6,5.2-2.9,8.9-2.9C73.2,85.3,78,88.3,77.9,91.8z"/>
			<path class="st2" d="M79.8,91.9C79.7,93.6,78.9,95,78,96c-1,1-2.1,1.7-3.2,2.2c-2.3,1-4.7,1.4-7,1.4s-4.6-0.4-6.9-1.1
				c-1.1-0.4-2.3-0.9-3.4-1.6c-1.1-0.7-2.1-1.8-2.8-3.2l3.3,0.4c-1.1,1.9-2.6,3.4-4.5,4.4s-4.1,1.3-6.1,1.2c-2.1-0.1-4.1-0.7-6-1.6
				c-0.9-0.5-1.8-1.1-2.6-1.8c-0.8-0.7-1.5-1.5-2.1-2.4l3.7-0.3c-0.6,1.4-1.6,2.5-2.6,3.3c-1.1,0.8-2.2,1.3-3.3,1.7
				c-2.3,0.8-4.6,1-6.8,1c-2.3,0-4.6-0.3-6.9-1.3c-1.1-0.5-2.2-1.1-3.2-2s-1.9-2-2.3-3.5s-0.3-3.2,0.4-4.5c0.7-1.3,1.7-2.2,2.7-3
				c1-0.7,2.1-1.3,3.2-1.7c1.1-0.5,2.2-0.8,3.3-1.1c1.1-0.2,2.3-0.4,3.5-0.3c1.2,0,2.4,0.2,3.5,0.5c2.3,0.6,4.5,1.6,6.5,3.2l-4,2
				c-0.1-1.4,0-2.5,0.1-3.7s0.2-2.3,0.4-3.5c0.3-2.3,0.9-4.6,1.7-6.9c0.8-2.2,1.8-4.6,3.7-6.6c0.9-1,2.1-1.9,3.4-2.5
				c1.3-0.6,2.9-1,4.3-0.9c1.5,0,3,0.4,4.3,1.1s2.4,1.7,3.3,2.7c0.9,1,1.6,2.1,2.3,3.2s1.2,2.2,1.7,3.3c0.9,2.3,1.3,4.6,1.6,6.9
				c0.1,1.2,0.3,2.3,0.3,3.5c0.1,1.2,0.1,2.4-0.1,3.8l-4.8-2.7c2-1.5,4.1-2.5,6.4-2.9c2.3-0.5,4.6-0.5,6.8-0.1
				c2.2,0.4,4.4,1.1,6.4,2.4c1,0.7,1.9,1.6,2.6,2.7C79.4,89,79.9,90.4,79.8,91.9z M74.9,91.8c0-0.2,0.1-0.5,0-1.1s-0.5-1.3-1.1-1.8
				c-0.6-0.6-1.4-0.9-2.2-1.2c-0.8-0.3-1.7-0.4-2.5-0.6c-0.9-0.1-1.8-0.2-2.6-0.1c-0.8,0.1-1.7,0.2-2.5,0.5
				c-1.6,0.5-3.2,1.3-4.3,2.3l-3.6,3.3v-5.2c0-0.9,0-1.9-0.1-2.9s-0.2-2.1-0.4-3.1c-0.3-2-0.8-4-1.4-6c-0.5-1.9-1.2-3.8-2.3-5.3
				c-1.2-1.4-2.6-2.2-4.1-2.1c-3.2-0.1-5.5,3.3-6.9,7c-0.7,1.9-1.2,3.9-1.6,6c-0.2,1-0.3,2.1-0.4,3.1c0,0.9,0,2,0,2.9l0.3,5.1
				l-3.9-3.3c-1.2-1-2.9-1.8-4.6-2.3c-0.8-0.2-1.7-0.3-2.6-0.4c-0.9,0-1.8,0-2.7,0c-0.9,0-1.8,0.2-2.7,0.4c-0.8,0.3-1.7,0.6-2.3,1.2
				c-0.6,0.5-1.1,1.1-1.3,1.7c-0.2,0.6-0.1,1,0.1,1.5c0.2,0.4,0.7,0.9,1.2,1.3c0.6,0.4,1.3,0.8,2.1,1.1c1.5,0.6,3.3,1.1,5.1,1.1
				c1.8,0,3.7-0.2,5.2-0.7c0.8-0.3,1.5-0.6,2.1-1s0.9-0.9,1.1-1.3l2-4.6l2.4,4.2c0.4,0.6,0.8,1.2,1.2,1.7c0.5,0.6,1,1.1,1.6,1.5
				s1.3,0.7,1.9,1c0.7,0.2,1.4,0.3,2.1,0.2c1.5-0.1,2.8-0.7,3.9-1.4c1.2-0.7,2.2-1.7,3.1-2.8l3.7-5l0.7,5.6c0.1,0.9,1.5,2.2,3.2,2.8
				c0.4,0.2,0.9,0.3,1.3,0.4c0.5,0.1,0.9,0.2,1.4,0.2c0.9,0.1,1.9,0.1,2.9,0c1.9-0.2,3.7-0.8,5.1-1.6c0.7-0.4,1.3-0.9,1.7-1.4
				C74.8,92.3,74.9,92,74.9,91.8z"/>
		</g>
		<path id="XMLID_00000085929175639584490470000000083830039296438931_" class="st2" d="M4.2,23.4c3.3,0.1,6.7,0.4,10.1,1.3
			s6.9,2.5,9.4,5.3c1.3,1.4,2.3,3,3.1,4.7c0.8,1.7,1.2,3.4,1.6,5.1c0.7,3.5,0.8,6.9,0.9,10.2c0,1.4-1.1,2.6-2.6,2.6
			c-0.7,0-1.3-0.2-1.8-0.7l-0.2-0.2c-1.5-1.4-3.1-2.8-4.7-3.9c-1.6-1.2-3.2-2.1-4.7-2.8s-3.2-1.1-5-1.4c-0.5-0.1-0.9-0.1-1.4-0.2
			c-0.5,0-1-0.1-1.4-0.1c-1-0.1-2-0.1-3-0.2H4.3C3,43,2,41.9,2.1,40.5c0.1-1.2,1-2.1,2.1-2.2c1.1-0.1,2.2-0.3,3.3-0.4
			c0.6,0,1.1-0.1,1.7-0.1c0.6,0,1.1,0,1.7,0c2.3,0.1,4.7,0.6,7,1.6c2.2,1,4.1,2.6,5.7,4c0.8,0.7,1.6,1.5,2.4,2.2l2.3,2.2l-4.1,1.6
			c0.1-3.1-0.1-6.3-0.6-9.2c-0.6-2.9-1.6-5.5-3.4-7.4c-1.8-1.9-4.3-3.2-7.2-3.9c-2.8-0.7-5.9-1-9-1.1c-1.3,0-2.4-1.2-2.3-2.5
			C1.7,24.4,2.8,23.4,4.2,23.4L4.2,23.4z"/>
		<path id="XMLID_00000111894535075847216480000012479196981180920459_" class="st2" d="M90.9,27.6c-3.1,0.2-6.3,0.5-9.1,1.4
			c-2.9,0.8-5.5,2.1-7.3,4.1s-2.9,4.7-3.3,7.6c-0.4,2.9-0.4,6.1-0.2,9.2l-4.5-1.8c1.5-1.5,2.9-3.1,4.6-4.7c1.6-1.5,3.5-3.1,5.8-4.2
			c2.3-1.1,4.8-1.6,7.2-1.7c2.4-0.1,4.6,0.1,6.8,0.4c1.3,0.2,2.2,1.5,2,2.8c-0.2,1.2-1.2,2-2.3,2c-1,0-2,0-3,0.1
			c-0.5,0-1,0.1-1.5,0.1s-1,0.1-1.4,0.2c-1.9,0.2-3.6,0.7-5.2,1.5s-3.2,1.8-4.8,3c-0.8,0.6-1.5,1.3-2.3,2l-2.2,2.2
			c-0.9,0.9-2.5,0.9-3.4,0c-0.4-0.4-0.7-1-0.7-1.6l0,0C66,46.9,66,43.5,66.6,40s1.9-7.2,4.6-10c1.3-1.4,2.9-2.6,4.5-3.5
			s3.4-1.5,5.1-2c3.4-1,6.8-1.3,10.2-1.5c1.3-0.1,2.5,0.9,2.5,2.3C93.3,26.4,92.3,27.5,90.9,27.6L90.9,27.6z"/>
		<g>
			
				<rect id="XMLID_00000116924092092007537200000018012629988584729487_" x="31.7" y="4.1" class="st2" width="31.6" height="12.6"/>
			<path id="XMLID_00000028313480802689294310000009582092222201555118_" class="st2" d="M61.7,6h-0.4l-7.7,0.6
				c-2.5,0.2-5,0.4-7.4,0.5s-4.8,0.1-7.3,0.1l-3.6-0.1c-1.2-0.1-2.4-0.2-3.7-0.2l2.8-2.8l-0.2,6.3L34,16.7l-2.5-2.5l7.9,0.2l7.9,0.1
				l16,0l-2.2,2.2C61.1,13.2,61.4,9.7,61.7,6z M65.2,2.7c0.4,4.5,0.7,9.4,0.7,14.1v0.1c0,1.4-1.2,2.6-2.6,2.6
				c-10.5-0.1-21,0-31.6-0.1h-0.1c-1.4,0-2.5-1.1-2.4-2.5l0.1-6.3V7.4V5.8V5c0-0.3,0-0.5,0.2-0.8l1.8-2C31.4,2.1,31.5,2,31.7,2
				l4.1,0.1l4.1,0.1c2.8,0,5.5,0.2,8.2,0.2l16.5,0.3H65.2z"/>
		</g>
	</g>
</g>
</svg>
